<?xml version="1.0" standalone="no"?>
<!DOCTYPE svg PUBLIC "-//W3C//DTD SVG 20010904//EN"
 "http://www.w3.org/TR/2001/REC-SVG-20010904/DTD/svg10.dtd">
<svg version="1.0" xmlns="http://www.w3.org/2000/svg"
 width="120.000000pt" height="120.000000pt" viewBox="0 0 120.000000 120.000000"
 preserveAspectRatio="xMidYMid meet">
<metadata>
Created by potrace 1.11, written by Peter Selinger 2001-2013
</metadata>
<g transform="translate(0.000000,120.000000) scale(0.100000,-0.100000)"
fill="#000000" stroke="none">
<path d="M0 600 l0 -600 600 0 600 0 0 600 0 600 -600 0 -600 0 0 -600z m692
349 c62 -13 127 -44 134 -64 5 -13 -36 -88 -55 -99 -5 -3 -33 5 -63 19 -29 14
-66 25 -81 25 -64 0 -112 -54 -88 -98 10 -19 34 -30 157 -76 107 -40 144 -89
144 -189 -1 -179 -184 -273 -382 -197 -71 27 -101 54 -93 80 9 28 54 80 70 80
7 0 39 -14 71 -31 50 -26 66 -30 104 -25 51 7 80 34 80 75 0 40 -34 65 -129
96 -97 32 -155 77 -171 133 -32 117 25 223 142 263 62 22 89 23 160 8z"/>
</g>
</svg>
